<svg width="21" height="20" viewBox="0 0 21 20" fill="none" xmlns="http://www.w3.org/2000/svg">
    <path
        d="M20.442 8.04149H19.6365V7.99999L10.6365 7.99999L10.6365 12L16.288 12C15.4635 14.3285 13.248 16 10.6365 16C7.32298 16 4.63648 13.3135 4.63648 9.99999C4.63648 6.68649 7.32298 3.99998 10.6365 3.99998C12.166 3.99998 13.5575 4.57698 14.617 5.51948L17.4455 2.69098C15.6595 1.02648 13.2705 -2.28882e-05 10.6365 -2.28882e-05C5.11398 -2.28882e-05 0.636475 4.47748 0.636475 9.99999C0.636475 15.5225 5.11398 20 10.6365 20C16.159 20 20.6365 15.5225 20.6365 9.99999C20.6365 9.32949 20.5675 8.67499 20.442 8.04149Z"
        fill="#FFC107" />
    <path
        d="M1.78947 5.34548L5.07498 7.75499C5.96398 5.55398 8.11698 3.99998 10.6365 3.99998C12.166 3.99998 13.5575 4.57698 14.617 5.51948L17.4455 2.69098C15.6595 1.02648 13.2705 -2.28882e-05 10.6365 -2.28882e-05C6.79548 -2.28882e-05 3.46448 2.16848 1.78947 5.34548Z"
        fill="#FF3D00" />
    <path
        d="M10.6365 20C13.2195 20 15.5665 19.0115 17.341 17.404L14.246 14.785C13.2082 15.5742 11.9402 16.001 10.6365 16C8.03547 16 5.82697 14.3415 4.99497 12.027L1.73396 14.5395C3.38897 17.778 6.74997 20 10.6365 20Z"
        fill="#4CAF50" />
    <path
        d="M20.442 8.04149H19.6365V7.99999L10.6365 7.99999L10.6365 12L16.288 12C15.8936 13.1082 15.1832 14.0766 14.2445 14.7855L14.246 14.7845L17.341 17.4035C17.122 17.6025 20.6365 15 20.6365 9.99999C20.6365 9.32949 20.5675 8.67499 20.442 8.04149Z"
        fill="#1976D2" />
</svg>
