<svg width="151" height="80" viewBox="0 0 151 80" fill="none" xmlns="http://www.w3.org/2000/svg">
    <path
        d="M0.829346 40.1408V79.889H40.5775H80.3551L67.1253 66.6592L53.8955 53.4294L40.6657 53.3706L27.4359 53.2824L27.3477 40.0526L27.2889 26.8228L14.0591 13.5931L0.829346 0.363274V40.1408Z"
        fill="#1A9EB7" />
    <path
        d="M39.905 46.5483C38.6463 46.5483 37.5903 46.1643 36.737 45.3963C35.8836 44.607 35.4356 43.5936 35.393 42.3563V31.8923H39.873V40.6923C39.9156 41.311 40.0756 41.8123 40.353 42.1963C40.6303 42.559 41.0996 42.7403 41.761 42.7403C42.4223 42.7403 42.9876 42.5163 43.457 42.0683C43.9476 41.6203 44.321 41.0123 44.577 40.2443C44.8543 39.455 44.993 38.5696 44.993 37.5883V31.8923H49.473V45.8763H45.409L45.057 43.3163L45.121 43.6043C44.801 44.1803 44.3956 44.6923 43.905 45.1403C43.4143 45.5883 42.8276 45.9296 42.145 46.1643C41.4836 46.4203 40.737 46.5483 39.905 46.5483Z"
        fill="#FF8600" />
    <path
        d="M60.4165 36.3403L63.0725 31.8923H67.5205L61.9845 39.5723L60.4165 36.3403ZM68.2885 45.8763H62.8805L52.0965 31.8923H57.6005L68.2885 45.8763ZM59.8405 41.3963L56.7045 45.8763H52.2565L57.7925 38.3883L59.8405 41.3963Z"
        fill="#FF8600" />
    <path
        d="M77.4917 46.2603C75.785 46.2603 74.3344 45.9403 73.1397 45.3003C71.9664 44.6603 71.0704 43.775 70.4517 42.6443C69.833 41.5136 69.5237 40.2123 69.5237 38.7403C69.5237 37.3323 69.8864 36.063 70.6117 34.9323C71.337 33.8016 72.3077 32.9056 73.5237 32.2443C74.7397 31.5616 76.0944 31.2203 77.5877 31.2203C79.593 31.2203 81.2357 31.807 82.5157 32.9803C83.817 34.1323 84.6597 35.807 85.0437 38.0043L74.1637 41.4603L73.1717 39.0283L81.0437 36.3723L80.1157 36.7883C79.945 36.2336 79.6357 35.7536 79.1877 35.3483C78.761 34.9216 78.1104 34.7083 77.2357 34.7083C76.5744 34.7083 75.9877 34.8683 75.4757 35.1883C74.985 35.487 74.601 35.9243 74.3237 36.5003C74.0677 37.055 73.9397 37.7163 73.9397 38.4843C73.9397 39.359 74.0997 40.095 74.4197 40.6923C74.7397 41.2683 75.177 41.7056 75.7317 42.0043C76.2864 42.303 76.905 42.4523 77.5877 42.4523C78.0784 42.4523 78.5477 42.367 78.9957 42.1963C79.465 42.0256 79.9237 41.8016 80.3717 41.5243L82.3557 44.8523C81.609 45.279 80.7984 45.6203 79.9237 45.8763C79.0704 46.1323 78.2597 46.2603 77.4917 46.2603Z"
        fill="#FF8600" />
    <path d="M89.0352 22.3243H93.6752V41.3963H104.747V45.8763H89.0352V22.3243Z" fill="#FF8600" />
    <path
        d="M107.711 38.7083C107.711 37.279 108.042 35.999 108.703 34.8683C109.386 33.7376 110.335 32.8523 111.551 32.2123C112.767 31.551 114.165 31.2203 115.743 31.2203C117.343 31.2203 118.73 31.551 119.903 32.2123C121.077 32.8523 121.973 33.7376 122.591 34.8683C123.231 35.999 123.551 37.279 123.551 38.7083C123.551 40.1376 123.231 41.4283 122.591 42.5803C121.973 43.711 121.077 44.607 119.903 45.2683C118.73 45.9296 117.322 46.2603 115.679 46.2603C114.143 46.2603 112.767 45.9616 111.551 45.3643C110.357 44.767 109.418 43.903 108.735 42.7723C108.053 41.6416 107.711 40.287 107.711 38.7083ZM112.223 38.7403C112.223 39.4656 112.373 40.127 112.671 40.7243C112.97 41.3003 113.375 41.759 113.887 42.1003C114.399 42.4416 114.975 42.6123 115.615 42.6123C116.319 42.6123 116.927 42.4416 117.439 42.1003C117.951 41.759 118.346 41.3003 118.623 40.7243C118.901 40.127 119.039 39.4656 119.039 38.7403C119.039 37.9936 118.901 37.3323 118.623 36.7563C118.346 36.1803 117.951 35.7216 117.439 35.3803C116.927 35.039 116.319 34.8683 115.615 34.8683C114.975 34.8683 114.399 35.039 113.887 35.3803C113.375 35.7216 112.97 36.1803 112.671 36.7563C112.373 37.3323 112.223 37.9936 112.223 38.7403Z"
        fill="#FF8600" />
    <path
        d="M128.424 45.8763V35.7963H126.056V31.8283H128.424V26.9643C128.424 25.1296 128.947 23.6363 129.992 22.4843C131.059 21.311 132.595 20.7243 134.6 20.7243C135.198 20.7243 135.859 20.8203 136.584 21.0123C137.331 21.183 137.982 21.471 138.536 21.8763L136.648 25.1083C136.435 24.831 136.179 24.6496 135.88 24.5643C135.603 24.4576 135.336 24.4043 135.08 24.4043C134.44 24.4043 133.918 24.6176 133.512 25.0443C133.107 25.471 132.904 26.1536 132.904 27.0923V31.8283H137.128V35.7963H132.904V45.8763H128.424Z"
        fill="#FF8600" />
    <path
        d="M142.299 25.7483H146.779V31.8283H150.171V35.3163H146.779V45.8763H142.299V35.3163H140.123V31.8283H142.299V25.7483Z"
        fill="#FF8600" />
</svg>
