<svg width="16" height="17" viewBox="0 0 16 17" fill="none" xmlns="http://www.w3.org/2000/svg">
    <g clip-path="url(#clip0_0_1099)">
        <path
            d="M1.39062 0.338331C0.674992 0.422706 0.121867 1.01021 0.071867 1.74146C0.049992 2.03521 0.099992 2.27583 0.234367 2.54771C0.331242 2.73833 0.581242 2.99771 3.07812 5.49146L5.81249 8.22583L3.04999 10.9915C0.156242 13.8915 0.162492 13.8852 0.049992 14.2696C-0.018758 14.5071 -0.015633 14.9352 0.059367 15.1758C0.206242 15.6477 0.549992 15.979 1.02187 16.1008C1.24687 16.1602 1.77499 16.1602 1.98749 16.104C2.38749 15.9977 2.34687 16.0352 5.24999 13.1321L7.98437 10.3977L10.7344 13.1446C13.6375 16.0446 13.5687 15.9821 13.9719 16.0977C14.2125 16.1696 14.7219 16.1696 14.9594 16.1008C15.5937 15.9196 16 15.3665 16 14.6821C16 14.3446 15.9219 14.0696 15.7625 13.829C15.7 13.7383 14.4187 12.4383 12.9125 10.9383L10.1719 8.21645L12.9094 5.46958C15.5 2.87271 15.65 2.71646 15.7344 2.52271C15.9937 1.92896 15.8687 1.23833 15.425 0.803956C15.0812 0.466456 14.775 0.350831 14.2719 0.372706C13.8906 0.391456 13.6812 0.463331 13.4156 0.663331C13.3156 0.738331 12.0531 1.98208 10.6125 3.42583L7.98749 6.05083L5.25937 3.33521C3.32187 1.40708 2.48437 0.594581 2.36562 0.528956C2.07812 0.363331 1.73749 0.297706 1.39062 0.338331Z"
            fill="black" />
    </g>
    <defs>
        <clipPath id="clip0_0_1099">
            <rect width="16" height="16" fill="white" transform="translate(0 0.241455)" />
        </clipPath>
    </defs>
</svg>
